PathFileType	4	(X/Y/Z)	Patient4_TMGait_0pt5_01_right_03.trc.trc
DataRate	CameraRate	NumFrames	NumMarkers	Units	OrigDataRate	OrigDataStartFrame	OrigNumFrames
73.684210526316	73.684210526316	5	33	mm	73.684210526316	18	       141
Frame#	Time	L.ASIS			Sacral			L.Shoulder			Chest			R.Shoulder			Neck			R.ASIS			R.Thigh.Superior			R.Thigh.Lateral			R.Thigh.Inferior			R.Patella			L.Thigh.Superior			L.Thigh.Lateral			L.Thigh.Inferior			L.Patella			L.Shank.Superior			L.Shank.Lateral			L.Shank.Inferior			R.Shank.Superior			R.Shank.Lateral			R.Shank.Inferior			R.Heel			R.Midfoot.Superior			R.Midfoot.Lateral			R.Toe			L.Heel			L.Midfoot.Lateral			L.Midfoot.Superior			L.Toe			L.Elbow			L.Wrist			R.Elbow			R.Wrist			
		X1	Y1	Z1	X2	Y2	Z2	X3	Y3	Z3	X4	Y4	Z4	X5	Y5	Z5	X6	Y6	Z6	X7	Y7	Z7	X8	Y8	Z8	X9	Y9	Z9	X10	Y10	Z10	X11	Y11	Z11	X12	Y12	Z12	X13	Y13	Z13	X14	Y14	Z14	X15	Y15	Z15	X16	Y16	Z16	X17	Y17	Z17	X18	Y18	Z18	X19	Y19	Z19	X20	Y20	Z20	X21	Y21	Z21	X22	Y22	Z22	X23	Y23	Z23	X24	Y24	Z24	X25	Y25	Z25	X26	Y26	Z26	X27	Y27	Z27	X28	Y28	Z28	X29	Y29	Z29	X30	Y30	Z30	X31	Y31	Z31	X32	Y32	Z32	X33	Y33	Z33	

18	3.440714285714	783.659188333001	958.371678379824	308.731697998635	553.976024684565	1008.714973338537	439.610736164678	761.786581222434	1436.725311730006	280.808887582669	837.281181906301	1363.768397076345	455.317058446741	728.927046350449	1438.585038627030	615.501064941691	741.796289491759	1496.812942696833	430.006462392488	768.929351348591	945.980651751154	583.128380652135	841.979042300634	768.051975197860	559.247237861344	791.184881031892	650.607452603483	630.618441524161	878.435530452105	607.383182412473	551.968117701828	909.583677492083	523.545244658964	570.116945868731	795.215212371669	733.832867058850	344.475967874433	692.745453871361	633.345971421979	274.746158269927	749.105369189655	545.066150005431	349.060343303568	734.916694862848	477.905471228220	360.147658852222	706.129448437537	409.667931938388	349.747713004574	613.724678120507	301.155705222556	294.180322728515	646.445209780264	189.025002413691	372.087310408512	890.645270150570	436.016209976038	580.030859964409	834.712183219835	325.468224323150	645.764622125017	898.989961244026	235.894904432523	594.064308169288	798.391426418986	49.710526898594	569.263209987137	960.425431636133	124.132762825574	605.987035479733	883.498043640294	48.272549339134	642.610712172478	1085.906585615723	89.032746729215	633.696282081713	505.567988202782	38.349054184859	407.255811880454	582.597476177056	35.281242679469	329.590355857680	665.575664014196	95.205706855311	360.034552468126	794.385022184882	41.411965686607	336.232130364464	803.718926324928	1100.110450224466	132.518071969840	1049.237008363068	1029.057241838930	163.482122571848	568.440568827306	1130.230203209417	707.036034080989	516.547880849810	875.837106709108	722.785223718911	
19	3.454285714286	785.029866491202	957.481910490051	310.902991543114	554.854862642415	1007.474027686134	440.925212789110	761.951766405403	1435.771720040496	282.767364821521	837.114030572257	1363.131559317535	457.529605501361	728.153256480884	1437.801546720478	617.304843736664	741.390200087943	1495.891801126985	431.847118452010	769.347332526769	944.749654996232	585.300089842501	840.826432797311	765.294470616716	561.993535430550	787.891269231193	647.920100140148	632.196138213056	875.247084862379	604.582149049886	553.896662023136	905.581376541037	522.030003851576	570.871091357983	794.088612999307	732.246205347172	346.223561217026	690.463645001354	632.937114737904	275.734604093124	745.356283714178	543.991179657126	350.025433670805	730.436956999850	477.030262375950	360.882306626216	701.277437485000	409.026788742442	350.355577664988	608.274240588990	301.131459426055	294.538681419770	640.162749292701	188.697229610732	372.335267310512	889.035942147635	434.426532942706	580.717522030436	835.700571281341	322.098501547698	645.697550212678	902.720216354031	234.415354141396	593.814234537703	807.000450128656	45.943667954992	568.209420278204	967.508173455966	123.893985420067	605.250636523322	892.185273959132	46.177270786263	641.521268156832	1093.815049806124	91.341398788075	632.574864296340	498.715698982417	38.338062438940	407.255933371950	575.733598131900	35.260658514947	329.627358425608	658.705314466089	95.181449299749	360.109888851391	787.496203080570	41.350960822444	336.277567192105	806.294148311384	1099.340512864138	135.124198064674	1052.924262142306	1033.353898759416	166.903273155165	566.925077987646	1129.739451010196	707.617212148170	515.487259675610	875.071726065099	722.403314828333	
20	3.467857142857	786.536810732816	956.514883231233	313.161559958252	555.970519792748	1006.034706842747	442.551234798015	761.986854311358	1434.702996052781	284.887789841523	836.975147143546	1362.428029188602	459.860554895993	727.463378995217	1436.860873402079	619.305151299884	740.924813991175	1494.844786872342	433.869435051381	770.070288335152	943.367746278025	587.557605614257	840.305164213280	762.667670801477	564.688756873029	785.229396341536	645.195865699695	633.486410955868	872.868450165939	601.951018709503	555.694542123904	902.119183908457	520.249523449562	571.490896444446	793.194546998281	730.602867471849	347.945159053309	688.334930641911	632.454366480561	276.870177735749	741.897943183341	542.845647966232	351.042197761654	726.267482388018	476.013515234641	361.708317071817	696.659392166731	408.278903570785	351.048026664419	602.936621110096	301.100542926300	294.963084677894	633.950506516032	188.315307584192	372.593738591103	887.342857313817	432.442209689451	581.233276670025	835.540723182178	318.892352464763	645.253782380588	904.522393118791	232.650423758625	593.307008618273	812.007850709271	43.293268481928	566.792712361216	971.633375836542	122.952802145252	604.286183889456	897.090672117172	44.439571487379	640.184424570460	1098.200198494551	91.651943536547	631.367063885770	491.851010774744	38.274526058505	407.257183998117	568.867224586821	35.213195559042	329.669477623370	651.823773316729	95.150987716805	360.186519734123	780.613311687658	41.281489105777	336.312707521735	808.539207793860	1098.410281349513	137.877219401351	1056.027757655618	1036.804007005688	170.484100115636	566.275824082161	1128.626294718044	708.542848080995	516.138333442143	873.491487557456	722.263135822278	
21	3.481428571429	788.124393604662	955.467785610998	315.481864769722	557.305613364710	1004.414328506341	444.484997322588	761.901147878492	1433.531077549653	287.177535706688	836.874936604715	1361.657192526446	462.312290080751	726.866813668886	1435.761509427722	621.513059050159	740.421958128149	1493.682124873976	436.084439313657	771.092296483014	941.855294779652	589.879257518028	840.443444122240	760.204540829445	567.292481834693	783.248084352875	642.501488615821	634.505126298191	871.350417971462	599.533547029592	557.372165266327	899.282107173930	518.250594758813	572.004963048891	792.565825572920	728.918788964360	349.622454929089	686.414162112284	631.883660985310	278.163258135543	738.822278707215	541.621691695399	352.128041029282	722.517251218484	474.822803265079	362.646911555609	692.356645816080	407.394803218487	351.848050705254	597.764985637145	301.061183774008	295.468126712372	627.831671071858	187.868844290040	372.872392847426	885.695208023918	430.119001535116	581.613009215358	834.455851664769	315.834219091003	644.562884754706	904.640770293016	230.554836223834	592.624242234518	813.664655179832	41.564926806596	565.191150889844	973.102343919379	121.235877709460	603.164208375334	898.536504422759	42.922293128169	638.743265107357	1099.464533014418	89.950044143424	630.099847619738	484.971340384035	38.162831418136	407.252536441436	562.001932140660	35.138185341095	329.714508504712	644.939534234559	95.113997724725	360.262545567114	773.746512093036	41.197743610112	336.334472068756	810.431122064384	1097.318430151997	140.767385516583	1058.556119730506	1039.375491522186	174.214179306643	566.462042629330	1126.908984282010	709.833632358782	518.460729331586	871.137355042734	722.423135098874	
22	3.495000000000	789.730233195503	954.349044213693	317.837065963287	558.830552452960	1002.646153033140	446.712312112149	761.710590000912	1432.283419775441	289.640223077882	836.826003224290	1360.827417963618	464.882050099779	726.381001601999	1434.517763107529	623.935276222494	739.911671387522	1492.430366700672	438.501180810270	772.394346408056	940.251555174193	592.243749814817	841.225584276014	757.930080781247	569.767246942455	781.978441424683	639.916911130862	635.299555784735	870.689869004879	597.364888930452	558.933156565893	897.119062075621	516.097044253632	572.437120800383	792.233253272918	727.222080698216	351.245626349257	684.768414545330	631.215405553407	279.625982087926	736.235152747828	540.319300773492	353.304191692846	719.315217442311	473.431670703510	363.714955669352	688.463052357313	406.351684263407	352.776760156258	592.823814633601	301.022276315816	296.069637474883	621.836859365099	187.357462805715	373.178967108980	884.212712464545	427.552936390028	581.892982708577	832.734339606836	312.944268340801	643.777111989864	903.401671534918	228.157623191647	591.850716976981	812.412270896628	40.573764481536	563.586856620815	972.324913101201	118.792841643529	601.957280947740	897.031007412791	41.544681976544	637.337044886502	1098.135962184161	86.444718473349	628.796856395046	478.076029843397	38.029945696172	407.233387537953	555.143382105040	35.044639559032	329.759075425440	638.069225729344	95.072440693721	360.333149724492	766.907774407892	41.091487398318	336.339416748345	811.945502675085	1096.073385196799	143.788873916904	1060.512782573650	1041.042801523334	178.081639042902	567.454478360122	1124.631678728365	711.499646984286	522.398791169021	868.083541835072	722.933742214776	
